<svg width="340" height="40" viewBox="0 0 340 40" fill="none" xmlns="http://www.w3.org/2000/svg">
<g clip-path="url(#clip0_1_126)">
<path d="M198.132 31.5516C197.863 31.6203 196.782 31.6203 196.309 31.6203H161.5V39.7975H196.918C197.186 39.7975 199.277 39.7975 199.682 39.7289C206.9 39.0489 210.205 32.9838 210.205 27.6674C210.205 22.351 206.764 16.3546 200.219 15.7433C198.937 15.6059 197.86 15.6059 197.387 15.6059H174.247C173.233 15.6059 172.088 15.5372 171.683 15.3998C169.861 14.9225 169.187 13.2877 169.187 11.9243C169.187 10.6982 169.861 9.06345 171.751 8.51738C172.292 8.38001 172.897 8.31132 174.179 8.31132H207.57V0.271484H173.638C172.22 0.271484 171.142 0.340172 170.265 0.477546C164.465 1.29492 160.415 5.99656 160.415 11.993C160.415 16.9007 163.452 22.6223 170.129 23.5771C171.343 23.7144 173.029 23.7144 173.771 23.7144H196.302C196.707 23.7144 197.72 23.7144 197.921 23.7831C200.484 24.1231 201.362 26.0326 201.362 27.7361C201.362 29.4395 200.348 31.143 198.125 31.5516H198.132Z" fill="white"/>
<path d="M132.155 31.5516C131.886 31.6203 130.805 31.6203 130.4 31.6203H95.523V39.7975H130.941C131.209 39.7975 133.3 39.7975 133.705 39.7289C140.923 39.0489 144.228 32.9838 144.228 27.6674C144.228 22.351 140.787 16.3546 134.242 15.7433C132.96 15.6059 131.883 15.6059 131.41 15.6059H108.27C107.256 15.6059 106.111 15.5372 105.706 15.3998C103.884 14.9225 103.21 13.2877 103.21 11.9243C103.21 10.6982 103.884 9.06345 105.774 8.51738C106.315 8.38001 106.92 8.31132 108.202 8.31132H141.593V0.271484H107.661C106.243 0.271484 105.165 0.340172 104.288 0.477546C98.4878 1.29492 94.4384 5.99656 94.4384 11.993C94.4384 16.9007 97.4745 22.6223 104.152 23.5771C105.366 23.7144 107.052 23.7144 107.794 23.7144H130.325C130.73 23.7144 131.743 23.7144 131.944 23.7831C134.507 24.1231 135.385 26.0326 135.385 27.7361C135.385 29.4395 134.439 31.143 132.148 31.5516H132.155Z" fill="white"/>
<path d="M77.3771 0H68.6085V40H77.3771V0Z" fill="white"/>
<path d="M49.2456 40V0H40.477V29.848L11.2676 0H0V40H8.7686V10.018L38.182 40H49.2456Z" fill="white"/>
<path d="M331.299 0V29.848L302.09 0H290.822V40H299.591V10.018L328.936 40H340V0H331.299Z" fill="white"/>
<path d="M245.15 0L220.459 40H231.118L235.504 32.8462H264.309L268.695 40H279.286L254.595 0H245.15ZM259.791 25.2803H240.023L249.941 9.19722L259.791 25.2803Z" fill="white"/>
</g>
<defs>
<clipPath id="clip0_1_126">
<rect width="340" height="40" fill="white"/>
</clipPath>
</defs>
</svg>
