<svg width="10" height="11" viewBox="0 0 10 11" fill="none" xmlns="http://www.w3.org/2000/svg">
<path fill-rule="evenodd" clip-rule="evenodd" d="M9.73056 5.04899L0.808318 0.0705739C0.726713 0.0246684 0.634044 0.000328528 0.539623 0H0.538067C0.443595 0.000362613 0.350881 0.0247151 0.269216 0.0706169C0.186974 0.115944 0.118695 0.181605 0.0713856 0.260859C0.0240763 0.340114 -0.000558532 0.430107 9.60918e-06 0.521602V10.4783C-0.000364043 10.5699 0.0242999 10.6599 0.0715043 10.7393C0.118709 10.8187 0.186778 10.8846 0.268819 10.9304C0.350861 10.9762 0.443962 11.0002 0.538697 11C0.633432 10.9998 0.726437 10.9755 0.808296 10.9294L9.73056 5.95094C9.81248 5.90524 9.88051 5.8395 9.9278 5.76034C9.9751 5.68117 10 5.59137 10 5.49996C10 5.40855 9.9751 5.31875 9.9278 5.23959C9.88051 5.16042 9.81248 5.09469 9.73056 5.04899Z" fill="#2B2B2B"/>
</svg>
