<svg width="350" height="280" viewBox="0 0 350 280" fill="none" xmlns="http://www.w3.org/2000/svg">
<g clip-path="url(#clip0_33_5934)">
<g clip-path="url(#clip1_33_5934)">
<path d="M51.2102 265.991H42.8925L28.4413 247.447L14.6209 265.991H5.948L24.2108 243.042L6.09113 220.511H14.6209L28.367 238.281L42.6115 220.511H50.7914L33.0958 242.973L51.2155 265.991H51.2102Z" fill="white"/>
<path d="M62.2209 247.659V241.711H85.4882V247.659H62.2209Z" fill="white"/>
<path d="M119.591 226.528V265.991H112.965V226.528H95.6189V220.511H136.937V226.528H119.591Z" fill="white"/>
<path d="M187.05 265.991C183.455 260.743 178.446 254.588 173.441 249.34H163.358V265.991H156.732V220.511H175.981C181.69 220.511 192.971 222.891 192.971 234.644C192.971 242.973 187.262 247.309 181.69 248.709C185.64 252.907 190.856 259.205 195.86 265.991H187.05ZM175.064 243.323C179.506 243.323 186.064 242.061 186.064 234.856C186.064 228.559 180.778 226.528 175.345 226.528H163.358V243.323H175.064Z" fill="white"/>
<path d="M253.697 265.991C252.568 262.635 251.158 258.574 249.467 254.238H224.508C222.674 258.855 221.195 262.985 220.278 265.991H213.158C220.066 245.21 229.937 225.41 232.969 220.511H240.794C242.697 223.517 252.499 241.711 260.605 265.991H253.697ZM247.14 248.359C243.895 240.311 240.158 232.057 236.988 226.459C234.098 231.845 230.218 240.311 226.905 248.359H247.14Z" fill="white"/>
<path d="M279.61 265.991V220.511H286.236V265.991H279.61Z" fill="white"/>
<path d="M343.347 259.974V265.991H310.421V220.511H317.047V259.974H343.347Z" fill="white"/>
<path d="M0 278.889H349.146" stroke="#BEA894" stroke-width="0.509679" stroke-miterlimit="10"/>
<path d="M0 206.792H349.146" stroke="#BEA894" stroke-width="0.509679" stroke-miterlimit="10"/>
<path d="M44.8858 76.2216H77.9922C77.9922 76.2216 78.0399 76.2428 78.0399 76.2693C78.0399 79.7416 75.2249 82.5566 71.7526 82.5566H44.8911C44.8911 82.5566 44.8434 82.5778 44.8434 82.6043V97.6122C44.8434 97.6122 44.8434 97.6334 44.854 97.644C51.4064 104.419 69.6798 126.17 73.6505 131.89C73.6611 131.906 73.6611 131.933 73.6452 131.948C71.3391 134.366 67.4056 134.085 65.46 131.365C59.9785 123.694 50.8709 112.032 44.9017 104.7C44.8805 104.673 44.8381 104.689 44.8381 104.721C44.8381 108.04 44.8381 194.604 44.8381 196.751C44.8381 196.778 44.8169 196.794 44.7904 196.794C41.3181 196.794 38.5031 193.979 38.5031 190.506V94.8449C38.5031 94.7919 38.4342 94.7813 38.4183 94.829C30.7155 116.914 19.8214 140.314 9.29312 155.682C7.38467 158.465 3.48294 159.017 0.885317 156.854C0.68917 156.689 0.498324 156.541 0.31278 156.408C0.291575 156.393 0.291575 156.371 0.307479 156.35C13.6137 140.627 28.6586 109.673 36.9551 82.6202C36.9657 82.5884 36.9445 82.5619 36.9127 82.5619H2.73016C2.73016 82.5619 2.68244 82.5407 2.68244 82.5142V76.2693C2.68244 76.2693 2.70365 76.2216 2.73016 76.2216H38.4554C38.4554 76.2216 38.5031 76.2004 38.5031 76.1739V0.482415C38.5031 0.482415 38.5243 0.434704 38.5508 0.434704H44.7957C44.7957 0.434704 44.8434 0.455909 44.8434 0.482415V76.1792C44.8434 76.1792 44.8646 76.2269 44.8911 76.2269L44.8858 76.2216ZM17.9077 56.7129C16.084 45.0077 11.5303 30.0953 6.20248 17.9607C6.19188 17.9342 6.20248 17.9077 6.23429 17.8971L11.8271 16.3915C11.8271 16.3915 11.8695 16.3915 11.8801 16.418C18.6392 30.5989 23.6542 49.1321 24.9637 61.3515C24.9637 61.3621 24.9584 61.3727 24.9478 61.378H24.9318C21.6133 62.1785 18.4325 60.0845 17.9077 56.7129ZM54.6772 61.7809C60.5669 49.5509 67.9834 28.6215 71.9116 14.8753C71.9116 14.8647 71.9276 14.8541 71.9381 14.8594C72.341 15.0291 78.2732 17.5154 78.6655 17.6797C78.6761 17.6797 78.6814 17.6956 78.6761 17.7115C74.0852 30.9011 67.8244 47.4357 62.3853 59.406C61.166 62.0884 58.0064 63.2812 55.3134 62.0937L54.7355 61.8392C54.6719 61.8127 54.6666 61.7968 54.6772 61.7809ZM140.324 131.042H198.331C198.331 131.042 198.379 131.063 198.379 131.09C198.379 134.562 195.564 137.377 192.091 137.377H140.33C140.33 137.377 140.282 137.398 140.282 137.425V190.496C140.282 193.968 137.467 196.783 133.995 196.783C133.995 196.783 133.947 196.762 133.947 196.735V137.419C133.947 137.419 133.926 137.372 133.899 137.372H79.8264C79.8264 137.372 79.7787 137.35 79.7787 137.324V131.079C79.7787 131.079 79.7999 131.031 79.8264 131.031H133.899C133.899 131.031 133.947 131.01 133.947 130.984V89.7981C133.947 89.7981 133.968 89.7504 133.995 89.7504H140.24C140.24 89.7504 140.287 89.7716 140.287 89.7981V130.984C140.287 130.984 140.309 131.031 140.335 131.031L140.324 131.042ZM131.1 34.7657C126.615 65.3169 116.23 85.6048 90.7364 98.296C87.6829 99.8175 83.9932 99.3086 81.4486 97.0343C81.2684 96.8753 81.0987 96.7215 80.9344 96.589C80.9079 96.5678 80.9185 96.5254 80.9503 96.5095C109.052 84.9368 120.18 65.0889 124.548 34.7869C124.548 34.7604 124.532 34.7339 124.5 34.7339H89.655C89.655 34.7339 89.6073 34.7127 89.6073 34.6862V28.2239C89.6073 28.2239 89.6285 28.1762 89.655 28.1762H125.385C125.385 28.1762 125.428 28.1603 125.433 28.1391C126.52 19.6465 126.955 10.2791 127.389 0.0477114C127.389 0.0212051 127.405 0.00530126 127.432 0.00530126C127.962 0 133.703 0 134.138 0C134.154 0 134.164 0.0106025 134.164 0.0265063C133.73 10.2579 133.078 19.6253 131.986 28.1232C131.986 28.1497 132.001 28.1762 132.028 28.1762H162.791C167.727 28.1762 171.724 32.1734 171.724 37.1088V76.4442C171.724 80.5951 171.941 83.6539 173.033 84.306C173.908 84.9633 175.217 85.1807 177.184 85.1807H184.389C186.355 85.1807 188.757 84.9633 189.631 84.306C190.506 83.8713 191.598 82.3392 192.033 80.3725C192.685 77.9816 192.902 72.5637 192.908 65.4123C192.908 65.3699 192.955 65.3487 192.987 65.3752C193.401 65.7304 193.851 66.0325 194.328 66.3029C197.302 67.994 199.163 71.1323 198.972 74.5464C198.713 79.2168 198.32 83.2988 197.711 84.9633C196.836 87.5822 194.874 88.8916 192.69 89.5489H192.685C191.153 90.4236 187.882 90.641 185.263 90.641H176.744C173.685 90.641 170.192 90.2063 168.225 88.6742C165.824 86.7075 165.384 84.306 165.384 74.0427V38.4925C165.384 36.4144 163.698 34.7286 161.62 34.7286H131.132C131.132 34.7286 131.09 34.7445 131.09 34.7657H131.1Z" fill="#BEA894"/>
<path d="M335.877 82.7368H276.35V128.677C276.35 128.789 276.646 139.815 274.717 153.159C272.241 170.25 267.237 182.978 260.239 189.976L259.258 190.951L260.239 191.932C261.13 192.823 262.344 193.321 263.6 193.321C263.68 193.321 263.764 193.321 263.844 193.316C265.169 193.247 266.41 192.616 267.242 191.593C273.953 183.312 278.576 170.653 280.988 153.954C281.073 153.355 281.158 152.761 281.232 152.173H343.707V178.891C343.707 183.206 340.198 186.721 335.877 186.721H311.831V188.105C311.831 190.814 314.036 193.019 316.745 193.019H335.883C343.67 193.019 350.011 186.684 350.011 178.891V96.8593C350.011 89.0718 343.676 82.7314 335.883 82.7314L335.877 82.7368ZM282.647 128.561V120.71H343.707V145.875H281.942C282.849 136.083 282.658 128.842 282.653 128.556L282.647 128.561ZM343.702 96.8593V114.412H282.642V89.0293H335.872C340.187 89.0293 343.702 92.5388 343.702 96.8593Z" fill="#BEA894"/>
<path d="M237.666 139.508C240.492 139.508 242.782 137.217 242.782 134.392C242.782 131.567 240.492 129.276 237.666 129.276C234.841 129.276 232.551 131.567 232.551 134.392C232.551 137.217 234.841 139.508 237.666 139.508Z" fill="#BEA894"/>
</g>
</g>
<defs>
<clipPath id="clip0_33_5934">
<rect width="350" height="279.272" fill="white"/>
</clipPath>
<clipPath id="clip1_33_5934">
<rect width="350" height="279.021" fill="white"/>
</clipPath>
</defs>
</svg>
