<svg width="350" height="319" viewBox="0 0 350 319" fill="none" xmlns="http://www.w3.org/2000/svg">
<g clip-path="url(#clip0_33_5934)">
<g clip-path="url(#clip1_33_5934)">
<path d="M51.2102 265.991H42.8925L28.4413 247.447L14.6209 265.991H5.948L24.2109 243.042L6.09113 220.511H14.6209L28.367 238.281L42.6115 220.511H50.7914L33.0958 242.973L51.2155 265.991H51.2102Z" fill="white"/>
<path d="M62.2209 247.659V241.711H85.4882V247.659H62.2209Z" fill="white"/>
<path d="M119.591 226.528V265.991H112.965V226.528H95.6189V220.511H136.937V226.528H119.591Z" fill="white"/>
<path d="M187.05 265.991C183.455 260.743 178.446 254.588 173.441 249.34H163.358V265.991H156.732V220.511H175.981C181.69 220.511 192.971 222.891 192.971 234.644C192.971 242.973 187.262 247.309 181.69 248.709C185.64 252.907 190.856 259.205 195.86 265.991H187.05ZM175.064 243.323C179.506 243.323 186.064 242.061 186.064 234.856C186.064 228.559 180.778 226.528 175.345 226.528H163.358V243.323H175.064Z" fill="white"/>
<path d="M253.697 265.991C252.568 262.635 251.158 258.574 249.467 254.238H224.508C222.674 258.855 221.195 262.985 220.278 265.991H213.158C220.066 245.21 229.937 225.41 232.969 220.511H240.794C242.697 223.517 252.499 241.711 260.605 265.991H253.697ZM247.14 248.359C243.895 240.311 240.158 232.057 236.988 226.459C234.098 231.845 230.218 240.311 226.905 248.359H247.14Z" fill="white"/>
<path d="M279.61 265.991V220.511H286.236V265.991H279.61Z" fill="white"/>
<path d="M343.347 259.974V265.991H310.421V220.511H317.047V259.974H343.347Z" fill="white"/>
<path d="M0 278.889H349.146" stroke="#BEA894" stroke-width="0.509679" stroke-miterlimit="10"/>
<path d="M0 206.792H349.146" stroke="#BEA894" stroke-width="0.509679" stroke-miterlimit="10"/>
<path d="M44.8858 76.2216H77.9922C77.9922 76.2216 78.0399 76.2428 78.0399 76.2693C78.0399 79.7416 75.2249 82.5566 71.7526 82.5566H44.8911C44.8911 82.5566 44.8434 82.5778 44.8434 82.6043V97.6122C44.8434 97.6122 44.8434 97.6334 44.854 97.644C51.4064 104.419 69.6798 126.17 73.6505 131.89C73.6611 131.906 73.6611 131.933 73.6452 131.948C71.3391 134.366 67.4056 134.085 65.46 131.365C59.9785 123.694 50.8709 112.032 44.9017 104.7C44.8805 104.673 44.8381 104.689 44.8381 104.721C44.8381 108.04 44.8381 194.604 44.8381 196.751C44.8381 196.778 44.8169 196.793 44.7904 196.793C41.3181 196.793 38.5031 193.979 38.5031 190.506V94.8449C38.5031 94.7919 38.4342 94.7813 38.4183 94.829C30.7155 116.914 19.8214 140.314 9.29312 155.682C7.38467 158.465 3.48294 159.017 0.885317 156.854C0.68917 156.689 0.498324 156.541 0.31278 156.408C0.291575 156.393 0.291575 156.371 0.307479 156.35C13.6137 140.627 28.6586 109.673 36.9551 82.6202C36.9657 82.5884 36.9445 82.5619 36.9127 82.5619H2.73016C2.73016 82.5619 2.68244 82.5407 2.68244 82.5142V76.2693C2.68244 76.2693 2.70365 76.2216 2.73016 76.2216H38.4554C38.4554 76.2216 38.5031 76.2004 38.5031 76.1739V0.482415C38.5031 0.482415 38.5243 0.434704 38.5508 0.434704H44.7957C44.7957 0.434704 44.8434 0.455909 44.8434 0.482415V76.1792C44.8434 76.1792 44.8646 76.2269 44.8911 76.2269L44.8858 76.2216ZM17.9077 56.7129C16.084 45.0077 11.5303 30.0953 6.20248 17.9607C6.19188 17.9342 6.20248 17.9077 6.23429 17.8971L11.8271 16.3915C11.8271 16.3915 11.8695 16.3915 11.8801 16.418C18.6392 30.5989 23.6542 49.1321 24.9637 61.3515C24.9637 61.3621 24.9584 61.3727 24.9478 61.378H24.9318C21.6133 62.1785 18.4325 60.0845 17.9077 56.7129ZM54.6772 61.7809C60.5669 49.5509 67.9834 28.6215 71.9116 14.8753C71.9116 14.8647 71.9275 14.8541 71.9382 14.8594C72.341 15.0291 78.2732 17.5154 78.6655 17.6797C78.6761 17.6797 78.6814 17.6956 78.6761 17.7115C74.0852 30.9011 67.8244 47.4357 62.3853 59.406C61.166 62.0884 58.0064 63.2812 55.3134 62.0937L54.7355 61.8392C54.6719 61.8127 54.6666 61.7968 54.6772 61.7809ZM140.324 131.042H198.331C198.331 131.042 198.379 131.063 198.379 131.09C198.379 134.562 195.564 137.377 192.091 137.377H140.33C140.33 137.377 140.282 137.398 140.282 137.425V190.496C140.282 193.968 137.467 196.783 133.995 196.783C133.995 196.783 133.947 196.762 133.947 196.735V137.419C133.947 137.419 133.926 137.372 133.899 137.372H79.8264C79.8264 137.372 79.7787 137.35 79.7787 137.324V131.079C79.7787 131.079 79.7999 131.031 79.8264 131.031H133.899C133.899 131.031 133.947 131.01 133.947 130.984V89.7981C133.947 89.7981 133.968 89.7504 133.995 89.7504H140.24C140.24 89.7504 140.287 89.7716 140.287 89.7981V130.984C140.287 130.984 140.309 131.031 140.335 131.031L140.324 131.042ZM131.1 34.7657C126.615 65.3169 116.23 85.6048 90.7364 98.296C87.6829 99.8175 83.9932 99.3086 81.4486 97.0343C81.2684 96.8753 81.0987 96.7215 80.9344 96.589C80.9079 96.5678 80.9185 96.5254 80.9503 96.5095C109.052 84.9368 120.18 65.0889 124.548 34.7869C124.548 34.7604 124.532 34.7339 124.5 34.7339H89.655C89.655 34.7339 89.6073 34.7127 89.6073 34.6862V28.2239C89.6073 28.2239 89.6285 28.1762 89.655 28.1762H125.385C125.385 28.1762 125.428 28.1603 125.433 28.1391C126.52 19.6465 126.955 10.2791 127.389 0.0477114C127.389 0.0212051 127.405 0.00530126 127.432 0.00530126C127.962 0 133.703 0 134.138 0C134.154 0 134.164 0.0106025 134.164 0.0265063C133.73 10.2579 133.078 19.6253 131.986 28.1232C131.986 28.1497 132.001 28.1762 132.028 28.1762H162.791C167.727 28.1762 171.724 32.1734 171.724 37.1088V76.4442C171.724 80.5951 171.941 83.6539 173.033 84.306C173.908 84.9633 175.217 85.1807 177.184 85.1807H184.389C186.355 85.1807 188.757 84.9633 189.631 84.306C190.506 83.8713 191.598 82.3392 192.033 80.3725C192.685 77.9816 192.902 72.5637 192.908 65.4123C192.908 65.3699 192.955 65.3487 192.987 65.3752C193.401 65.7304 193.851 66.0325 194.328 66.3029C197.302 67.994 199.163 71.1323 198.972 74.5464C198.713 79.2168 198.32 83.2988 197.711 84.9633C196.836 87.5822 194.874 88.8916 192.69 89.5489H192.685C191.153 90.4236 187.882 90.641 185.263 90.641H176.744C173.685 90.641 170.192 90.2063 168.225 88.6742C165.824 86.7075 165.384 84.306 165.384 74.0427V38.4925C165.384 36.4144 163.698 34.7286 161.62 34.7286H131.132C131.132 34.7286 131.09 34.7445 131.09 34.7657H131.1Z" fill="#BEA894"/>
<path d="M335.877 82.7368H276.35V128.677C276.35 128.789 276.646 139.815 274.717 153.159C272.241 170.25 267.237 182.978 260.239 189.976L259.258 190.951L260.239 191.932C261.13 192.823 262.344 193.321 263.6 193.321C263.68 193.321 263.764 193.321 263.844 193.316C265.169 193.247 266.41 192.616 267.242 191.593C273.953 183.312 278.576 170.653 280.988 153.954C281.073 153.355 281.158 152.761 281.232 152.173H343.707V178.891C343.707 183.206 340.198 186.721 335.877 186.721H311.831V188.105C311.831 190.814 314.036 193.019 316.745 193.019H335.883C343.67 193.019 350.011 186.684 350.011 178.891V96.8593C350.011 89.0718 343.676 82.7314 335.883 82.7314L335.877 82.7368ZM282.647 128.561V120.71H343.707V145.875H281.942C282.849 136.083 282.658 128.842 282.653 128.556L282.647 128.561ZM343.702 96.8593V114.412H282.642V89.0293H335.872C340.187 89.0293 343.702 92.5388 343.702 96.8593Z" fill="#BEA894"/>
<path d="M237.666 139.508C240.492 139.508 242.782 137.217 242.782 134.392C242.782 131.567 240.492 129.276 237.666 129.276C234.841 129.276 232.551 131.567 232.551 134.392C232.551 137.217 234.841 139.508 237.666 139.508Z" fill="#BEA894"/>
</g>
</g>
<path d="M208.045 310C208.908 310.629 211.524 312.824 212.132 313.365L211.409 314.301C210.827 313.625 209.168 312.08 208.045 311.123V317.873H206.947V310.681C205.756 312.761 204.123 314.743 202.698 315.887C202.49 315.606 202.163 315.232 201.929 315.044C203.588 313.874 205.502 311.518 206.646 309.251H202.303V308.2H206.952V305.444H202.002V304.414H213.282V305.444H208.169L208.055 305.465V308.195H212.959V309.246H208.055V309.995L208.045 310ZM212.788 299.001V300.03H202.464V299.001H206.947V296.291L208.466 296.405C208.445 296.546 208.325 296.66 208.045 296.686V299.001H212.788ZM204.919 300.259C205.502 301.45 205.949 303.036 206.063 304.066L205.059 304.347C204.945 303.317 204.524 301.705 203.983 300.493L204.919 300.259ZM211.482 300.68C211.415 300.795 211.274 300.868 211.04 300.868C210.713 301.897 210.104 303.437 209.615 304.42C209.615 304.42 208.752 304.092 208.726 304.092C209.194 303.062 209.823 301.336 210.104 300.191L211.482 300.68ZM223.579 304.42V305.496H220.661V317.899H219.538V305.496H215.383V306.734C215.383 310.239 214.941 314.696 211.529 317.946C211.389 317.691 210.993 317.27 210.713 317.104C213.911 314.139 214.285 310.073 214.285 306.713V298.538L215.268 298.886C217.837 298.21 220.594 297.253 222.112 296.39L223.324 297.279C223.277 297.347 223.184 297.373 223.09 297.373C223.022 297.373 222.976 297.373 222.903 297.352C221.129 298.215 218.113 299.151 215.383 299.848V304.425H223.579V304.42Z" fill="#BEA894"/>
<path d="M268.907 311.097L269.188 311.05L269.817 311.19C269.796 311.305 269.77 311.445 269.724 311.565C269.396 315.351 269.068 316.817 268.465 317.379C268.044 317.8 267.576 317.847 266.525 317.847C265.849 317.847 264.892 317.826 263.909 317.78C263.862 317.452 263.748 317.057 263.561 316.75C264.939 316.89 266.291 316.89 266.712 316.89C267.18 316.89 267.414 316.869 267.602 316.703C268.023 316.282 268.325 315.07 268.631 312.054H263.613C263.566 312.309 263.498 312.543 263.452 312.777L262.448 312.589C262.796 311.258 263.244 309.11 263.498 307.477H268.637V304.466H265.204C264.06 305.262 262.869 305.917 261.725 306.406C261.585 306.125 261.257 305.751 261.023 305.543C264.107 304.352 267.68 301.663 269.432 298.537H262.474V297.513H270.134L270.342 297.445L271.138 297.887C271.071 297.981 270.977 298.048 270.904 298.074C269.947 300.155 268.335 301.996 266.515 303.493H269.713V308.959H268.637V308.47H264.341C264.201 309.334 264.013 310.27 263.826 311.107H268.917L268.907 311.097ZM263.582 299.515C264.611 300.124 265.776 301.054 266.338 301.736L265.589 302.459C265.027 301.782 263.883 300.8 262.88 300.144L263.582 299.515ZM279.86 297.388C279.792 297.502 279.625 297.528 279.464 297.502C278.528 298.345 276.989 299.536 275.777 300.352C276.266 300.961 276.807 301.543 277.389 302.079C278.627 301.262 280.307 299.905 281.217 298.995L282.314 299.791C282.247 299.884 282.08 299.905 281.893 299.905C280.936 300.722 279.345 301.892 278.086 302.682C279.511 303.873 281.17 304.783 282.943 305.345C282.689 305.579 282.361 305.974 282.195 306.255C280.957 305.813 279.792 305.204 278.715 304.456V307.28C278.715 307.982 278.762 307.982 279.324 307.982H280.213C281.196 307.982 281.217 307.982 281.29 306.931C281.498 307.118 281.872 307.28 282.179 307.352C282.039 308.564 282.018 308.871 280.359 308.871H279.168C277.696 308.871 277.696 308.216 277.696 307.072V304.409H273.796V305.413C273.796 306.811 273.328 308.47 271.227 309.615C271.065 309.381 270.691 309.032 270.431 308.892C272.417 307.862 272.792 306.557 272.792 305.387V303.426H277.368C275.241 301.626 273.582 299.271 272.532 296.561L273.442 296.28C273.91 297.471 274.519 298.595 275.241 299.645C276.432 298.782 277.925 297.497 278.793 296.587L279.87 297.383L279.86 297.388ZM279.74 310.254L280.442 310.556C280.395 310.65 280.328 310.717 280.281 310.764C279.579 312.563 278.461 314.009 277.056 315.106C278.481 315.97 280.234 316.552 282.195 316.859C281.94 317.114 281.633 317.535 281.472 317.863C279.417 317.467 277.618 316.765 276.146 315.783C274.654 316.765 272.901 317.441 271.055 317.91C270.94 317.629 270.68 317.254 270.472 317.02C272.199 316.646 273.858 316.037 275.309 315.153C274.071 314.15 273.114 312.886 272.485 311.44L273.187 311.232H271.435V310.296H279.563L279.75 310.249L279.74 310.254ZM273.437 311.237C274.045 312.548 274.976 313.666 276.193 314.555C277.363 313.666 278.32 312.569 278.949 311.237H273.437Z" fill="#BEA894"/>
<path d="M329.016 308.996C329.016 309.136 328.875 309.251 328.594 309.277C328.106 313.666 326.915 316.495 321.449 317.941C321.334 317.639 321.028 317.192 320.773 316.984C325.958 315.725 327.102 313.177 327.497 308.835L329.016 308.996ZM331.819 298.954H341.627V300.051H331.819V302.922H339.453V303.972H323.222V302.922H330.649V300.051H321.028V298.954H330.649V296.27L332.235 296.384C332.214 296.525 332.094 296.639 331.814 296.665V298.954H331.819ZM340.717 310.535H339.573V307.384H322.967V310.535H321.844V306.307H340.712V310.535H340.717ZM334.528 315.533C334.528 316.141 334.715 316.256 335.719 316.256H339.318C340.254 316.256 340.395 315.861 340.488 313.011C340.743 313.219 341.211 313.406 341.565 313.5C341.403 316.604 341.05 317.332 339.417 317.332H335.678C333.878 317.332 333.389 317.005 333.389 315.533V308.809L334.929 308.923C334.908 309.063 334.814 309.157 334.533 309.204V315.533H334.528Z" fill="#BEA894"/>
<path d="M15.2273 298.446C17.1744 298.446 18.6979 298.906 19.7976 299.825C20.8974 300.745 21.4472 302.016 21.4472 303.638C21.4472 304.468 21.2309 305.333 20.7982 306.235C20.3835 307.118 19.8787 307.92 19.2838 308.641C18.6888 309.344 17.9226 310.111 16.9851 310.94C16.0476 311.751 15.2273 312.418 14.5242 312.941C13.8211 313.464 12.9828 314.059 12.0092 314.726H21.6365V316.349H9.60237V314.672C9.94492 314.384 10.603 313.888 11.5765 313.185C12.5501 312.481 13.4425 311.805 14.2538 311.156C15.0831 310.489 15.9395 309.741 16.8229 308.912C17.7063 308.082 18.4004 307.226 18.9052 306.343C19.428 305.441 19.6894 304.585 19.6894 303.774C19.6894 301.304 18.0939 300.069 14.9028 300.069C13.5867 300.069 12.0092 300.447 10.1703 301.205V299.501C11.9371 298.798 13.6228 298.446 15.2273 298.446ZM63.1354 298.446C65.3349 298.446 67.0387 299.275 68.2466 300.934C69.4725 302.593 70.0855 304.792 70.0855 307.533C70.0855 310.345 69.4635 312.572 68.2195 314.212C66.9756 315.853 65.2809 316.673 63.1354 316.673C61.0621 316.673 59.4125 315.853 58.1866 314.212C56.9606 312.572 56.3476 310.345 56.3476 307.533C56.3476 304.792 56.9426 302.593 58.1325 300.934C59.3404 299.275 61.008 298.446 63.1354 298.446ZM63.0814 300.069C61.6751 300.069 60.4942 300.691 59.5387 301.935C58.5832 303.161 58.1054 305.027 58.1054 307.533C58.1054 310.147 58.5832 312.058 59.5387 313.266C60.4942 314.456 61.6931 315.051 63.1354 315.051C64.5777 315.051 65.8037 314.447 66.8133 313.239C67.8229 312.031 68.3277 310.129 68.3277 307.533C68.3277 305.009 67.8319 303.134 66.8403 301.908C65.8668 300.682 64.6138 300.069 63.0814 300.069ZM110.37 298.446C112.318 298.446 113.841 298.906 114.941 299.825C116.04 300.745 116.59 302.016 116.59 303.638C116.59 304.468 116.374 305.333 115.941 306.235C115.527 307.118 115.022 307.92 114.427 308.641C113.832 309.344 113.066 310.111 112.128 310.94C111.191 311.751 110.37 312.418 109.667 312.941C108.964 313.464 108.126 314.059 107.152 314.726H116.78V316.349H104.745V314.672C105.088 314.384 105.746 313.888 106.72 313.185C107.693 312.481 108.586 311.805 109.397 311.156C110.226 310.489 111.083 309.741 111.966 308.912C112.849 308.082 113.543 307.226 114.048 306.343C114.571 305.441 114.833 304.585 114.833 303.774C114.833 301.304 113.237 300.069 110.046 300.069C108.73 300.069 107.152 300.447 105.313 301.205V299.501C107.08 298.798 108.766 298.446 110.37 298.446ZM162.957 298.5V300.15C160.794 300.258 158.81 300.943 157.008 302.205C155.205 303.449 154.069 305.018 153.6 306.911C154.754 305.45 156.413 304.72 158.576 304.72C160.469 304.72 161.983 305.27 163.119 306.37C164.255 307.469 164.823 308.867 164.823 310.561C164.823 312.238 164.246 313.68 163.092 314.888C161.938 316.078 160.352 316.673 158.333 316.673C156.349 316.673 154.763 316.06 153.573 314.834C152.401 313.608 151.815 311.859 151.815 309.588C151.815 306.433 152.825 303.882 154.844 301.935C156.881 299.988 159.586 298.843 162.957 298.5ZM158.603 306.343C157.107 306.343 155.908 306.739 155.006 307.533C154.105 308.308 153.654 309.326 153.654 310.588C153.654 311.832 154.06 312.887 154.871 313.752C155.682 314.618 156.854 315.051 158.387 315.051C159.811 315.051 160.929 314.645 161.74 313.834C162.569 313.022 162.984 311.95 162.984 310.615C162.984 309.209 162.569 308.146 161.74 307.424C160.929 306.703 159.883 306.343 158.603 306.343Z" fill="#BEA894"/>
<defs>
<clipPath id="clip0_33_5934">
<rect width="350" height="279.272" fill="white"/>
</clipPath>
<clipPath id="clip1_33_5934">
<rect width="350" height="279.021" fill="white"/>
</clipPath>
</defs>
</svg>
